HIERARCHY
ROOT Hips
{
	OFFSET 0.000000 0.000000 0.000000
	CHANNELS 6 Xposition Yposition Zposition Xrotation Yrotation Zrotation
	JOINT LeftUpLeg_virtual
	{
		OFFSET 0.000000 0.000000 0.000000
		CHANNELS 3 Xrotation Yrotation Zrotation
		JOINT LeftUpLeg
		{
			OFFSET 11.394100 -6.187798 -0.413800
			CHANNELS 3 Xrotation Yrotation Zrotation
			JOINT LeftLeg
			{
				OFFSET 0.430247 -32.302673 3.732800
				CHANNELS 3 Xrotation Yrotation Zrotation
				JOINT LeftFoot
				{
					OFFSET -0.430247 -48.264931 -6.423300
					CHANNELS 3 Xrotation Yrotation Zrotation
					JOINT LeftToeBase
					{
						OFFSET 4.230900 -16.068199 23.438400
						CHANNELS 3 Xrotation Yrotation Zrotation
						JOINT LeftToe_End
						{
							OFFSET 4.510700 0.695400 19.974600
							CHANNELS 3 Xrotation Yrotation Zrotation
							End Site
							{
								OFFSET 0 0 0
							}
						}
					}
				}
			}
		}
	}
	JOINT RightUpLeg_virtual
	{
		OFFSET 0.000000 0.000000 0.000000
		CHANNELS 3 Xrotation Yrotation Zrotation
		JOINT RightUpLeg
		{
			OFFSET -11.333700 -6.187798 -0.413800
			CHANNELS 3 Xrotation Yrotation Zrotation
			JOINT RightLeg
			{
				OFFSET -0.430392 -32.302628 3.733000
				CHANNELS 3 Xrotation Yrotation Zrotation
				JOINT RightFoot
				{
					OFFSET 0.430392 -48.264973 -6.423500
					CHANNELS 3 Xrotation Yrotation Zrotation
					JOINT RightToeBase
					{
						OFFSET -4.230900 -16.068199 23.438400
						CHANNELS 3 Xrotation Yrotation Zrotation
						JOINT RightToe_End
						{
							OFFSET -4.510700 0.695400 19.974600
							CHANNELS 3 Xrotation Yrotation Zrotation
							End Site
							{
								OFFSET 0 0 0
							}
						}
					}
				}
			}
		}
	}
	JOINT Spine_virtual
	{
		OFFSET 0.000000 0.000000 0.000000
		CHANNELS 3 Xrotation Yrotation Zrotation
		JOINT Spine
		{
			OFFSET -0.002400 12.777504 0.315300
			CHANNELS 3 Xrotation Yrotation Zrotation
			JOINT Spine1
			{
				OFFSET -0.002067 5.816869 0.032633
				CHANNELS 3 Xrotation Yrotation Zrotation
				JOINT Spine1_split
				{
					OFFSET -0.002067 5.816869 0.032633
					CHANNELS 3 Xrotation Yrotation Zrotation
					JOINT Spine2
					{
						OFFSET -0.002067 5.816869 0.032633
						CHANNELS 3 Xrotation Yrotation Zrotation
						JOINT Neck_virtual
						{
							OFFSET 0.000000 0.000000 0.000000
							CHANNELS 3 Xrotation Yrotation Zrotation
							JOINT Neck
							{
								OFFSET -0.003700 21.199493 -0.826900
								CHANNELS 3 Xrotation Yrotation Zrotation
								JOINT Head
								{
									OFFSET 0.000000 20.442200 4.834800
									CHANNELS 3 Xrotation Yrotation Zrotation
									JOINT HeadTop_End
									{
										OFFSET 0.000000 34.668396 4.968400
										CHANNELS 3 Xrotation Yrotation Zrotation
										End Site
										{
											OFFSET 0 0 0
										}
									}
								}
							}
						}
						JOINT LeftShoulder_virtual
						{
							OFFSET 0.000000 0.000000 0.000000
							CHANNELS 3 Xrotation Yrotation Zrotation
							JOINT LeftShoulder
							{
								OFFSET 3.288150 8.794197 -1.372250
								CHANNELS 3 Xrotation Yrotation Zrotation
								JOINT LeftShoulder_split
								{
									OFFSET 3.288150 8.794197 -1.372250
									CHANNELS 3 Xrotation Yrotation Zrotation
									JOINT LeftArm
									{
										OFFSET 11.953299 -2.279007 -0.146200
										CHANNELS 3 Xrotation Yrotation Zrotation
										JOINT LeftForeArm
										{
											OFFSET 18.448900 0.000000 0.000000
											CHANNELS 3 Xrotation Yrotation Zrotation
											JOINT LeftHand
											{
												OFFSET 29.527798 0.000000 0.000000
												CHANNELS 3 Xrotation Yrotation Zrotation
												End Site
												{
													OFFSET 0 0 0
												}
											}
										}
									}
								}
							}
						}
						JOINT RightShoulder_virtual
						{
							OFFSET 0.000000 0.000000 0.000000
							CHANNELS 3 Xrotation Yrotation Zrotation
							JOINT RightShoulder
							{
								OFFSET -3.249400 8.794197 -1.372250
								CHANNELS 3 Xrotation Yrotation Zrotation
								JOINT RightShoulder_split
								{
									OFFSET -3.249400 8.794197 -1.372250
									CHANNELS 3 Xrotation Yrotation Zrotation
									JOINT RightArm
									{
										OFFSET -11.953299 -2.279007 -0.146200
										CHANNELS 3 Xrotation Yrotation Zrotation
										JOINT RightForeArm
										{
											OFFSET -18.448900 0.000000 0.000000
											CHANNELS 3 Xrotation Yrotation Zrotation
											JOINT RightHand
											{
												OFFSET -29.527802 0.000000 0.000000
												CHANNELS 3 Xrotation Yrotation Zrotation
												End Site
												{
													OFFSET 0 0 0
												}
											}
										}
									}
								}
							}
						}
					}
				}
			}
		}
	}
}
MOTION
Frames: 6
Frame Time: 0.03333333
-2.477631 80.017494 -8.347340 0.000000 0.000000 0.000000 -1.834455 -34.370239 3.866046 -30.814258 -2.382120 9.618062 53.956807 0.250930 3.011579 -20.736191 6.216001 -14.965902 3.620592 -2.263180 -10.222201 0.000000 0.000000 0.000000 -1.842598 -35.345976 4.188511 -37.104460 -16.577639 -28.086561 61.781363 11.051290 -8.247994 -19.427454 -24.819383 33.872800 10.827480 15.407085 -34.055972 0.000000 0.000000 0.000000 -1.517934 -29.609461 2.199126 11.509808 2.790083 -2.419790 -2.150582 -1.046443 -1.704862 -0.033130 -0.208430 0.259205 0.000000 0.000000 0.000000 1.390976 1.409713 -0.126447 12.622467 11.312107 -1.235345 -16.252206 10.169385 -3.213860 0.000000 0.000000 0.000000 2.561654 -0.405448 -0.595896 1.490188 6.890998 -2.069058 -1.366119 -10.774680 -2.932784 -60.913000 -2.008376 -48.933381 -155.668071 -84.649499 -156.785394 0.000000 0.000000 0.000000 1.830968 -1.041553 -0.548951 -0.426593 9.612124 -4.393975 -0.531750 -4.748134 4.051167 -53.655210 29.121768 85.086508 -105.647686 77.029740 108.957083 0.000000 0.000000 0.000000 
-2.181348 79.371246 -7.276440 0.000000 0.000000 0.000000 -2.527998 -36.578914 3.637664 -32.342711 -2.995233 9.964356 55.315209 0.922592 2.145182 -19.792184 7.649371 -14.962470 3.827031 -2.075185 -11.938701 0.000000 0.000000 0.000000 -2.174751 -36.892577 4.052358 -37.080950 -16.170644 -28.371522 64.457287 11.324155 -8.721662 -21.343455 -25.056996 32.873233 14.155277 14.241910 -33.828523 0.000000 0.000000 0.000000 -1.769183 -30.617791 2.128076 12.015874 3.095525 -2.536411 -1.756069 -0.976293 -1.671795 -0.003180 -0.203366 0.290545 0.000000 0.000000 0.000000 1.320788 1.311219 0.004629 12.241411 11.409564 -0.618771 -17.001186 10.918274 -4.238465 0.000000 0.000000 0.000000 2.218437 -0.259532 -0.603579 1.136089 7.041064 -2.590721 -0.170342 -12.868232 -0.827031 -62.035432 -1.556980 -48.552147 -165.826447 -85.474934 -167.400819 0.000000 0.000000 0.000000 1.820859 -1.006285 -0.577055 -0.559151 9.934129 -4.384823 1.228784 -4.087302 4.324114 -54.042905 30.727607 85.377535 -113.645209 76.366897 117.253584 0.000000 0.000000 0.000000 
-1.745297 77.520798 -5.599319 0.000000 0.000000 0.000000 -3.153767 -39.003782 3.263384 -36.287989 -3.943680 11.449456 60.462624 -0.512417 1.287997 -17.819552 7.158973 -16.079911 4.147293 -2.271241 -13.357516 0.000000 0.000000 0.000000 -2.311560 -38.748210 3.922847 -37.516856 -15.381955 -29.124651 67.556718 12.053745 -9.798478 -22.508929 -25.419066 33.408289 13.702368 14.100461 -33.062620 0.000000 0.000000 0.000000 -1.981475 -32.747472 2.083703 12.954695 3.953244 -2.182407 -1.309544 -0.760428 -1.625899 -0.021154 -0.109232 0.229454 0.000000 0.000000 0.000000 1.410271 1.312056 0.167156 11.697821 11.883788 -0.111032 -18.066644 13.187792 -5.948050 0.000000 0.000000 0.000000 1.905934 -0.088036 -0.555722 0.893275 6.467578 -3.601187 1.230857 -13.217052 1.060606 -63.242996 -0.469063 -47.470170 -175.697191 -86.633436 -178.199594 0.000000 0.000000 0.000000 1.608845 -0.922520 -0.498334 -0.713350 10.621353 -4.548865 1.330287 -3.493282 4.075152 -52.215420 31.569913 84.220413 -122.950140 74.981803 126.501182 0.000000 0.000000 0.000000 
-1.228811 74.691933 -3.448341 0.000000 0.000000 0.000000 -3.600314 -41.291188 2.943229 -42.058252 -5.252542 13.965312 68.338099 -4.229058 1.251177 -14.319943 4.541858 -18.729205 1.638384 -2.568603 -13.199034 0.000000 0.000000 0.000000 -2.200202 -40.764345 3.852215 -38.486893 -14.206985 -30.265736 70.236222 13.224046 -11.288245 -22.777125 -25.738224 35.127584 9.907411 14.816740 -32.147221 0.000000 0.000000 0.000000 -2.338941 -35.618801 1.977031 14.183055 5.218262 -1.501361 -0.807611 -0.401616 -1.688761 -0.006190 -0.010169 0.114306 0.000000 0.000000 0.000000 1.649947 1.470688 0.251348 10.953945 12.757258 0.283859 -19.526271 16.946676 -7.997943 0.000000 0.000000 0.000000 1.727868 0.130343 -0.576758 0.801683 5.452837 -4.817782 2.407338 -11.876567 2.173640 -63.752023 1.977907 -45.363156 176.154021 -87.144184 172.552695 0.000000 0.000000 0.000000 1.285167 -0.752148 -0.431360 -0.938892 11.588065 -4.917624 0.100119 -2.559593 3.363234 -48.553021 31.247648 81.954743 -129.318567 73.500000 132.430483 0.000000 0.000000 0.000000 
-0.522251 71.394424 -1.072369 0.000000 0.000000 0.000000 -3.664342 -43.540987 2.887009 -47.733388 -6.472048 17.122198 76.152484 -8.385516 1.958485 -11.312385 0.861153 -20.697758 -4.982584 -3.004589 -11.212180 0.000000 0.000000 0.000000 -1.807293 -42.799229 3.961833 -40.184281 -12.581279 -31.776082 72.195421 14.700403 -12.936118 -22.442431 -25.827121 37.401672 6.578243 15.408989 -31.893077 0.000000 0.000000 0.000000 -2.705842 -38.916529 1.969249 15.477777 6.515009 -0.693243 -0.305024 0.031904 -1.926127 0.037265 0.021257 0.020774 0.000000 0.000000 0.000000 2.076833 1.784248 0.154813 10.051992 13.969808 0.680388 -21.272744 21.792017 -10.097414 0.000000 0.000000 0.000000 1.695978 0.417854 -0.804667 0.798375 4.270999 -6.052469 3.344563 -10.655782 3.849436 -62.890183 6.742295 -41.784881 172.454859 -85.381408 167.718478 0.000000 0.000000 0.000000 0.999414 -0.446818 -0.475678 -1.318154 12.677325 -5.573149 -1.655041 -1.360107 2.403647 -44.102094 30.098233 79.530764 -132.379694 72.707569 134.759564 0.000000 0.000000 0.000000 
0.198475 68.304260 1.589630 0.000000 0.000000 0.000000 -3.115576 -45.552666 3.244402 -52.380403 -7.262641 20.965745 82.118579 -11.735050 2.938370 -9.200731 -2.094842 -21.876604 -12.248034 -3.707658 -9.461881 0.000000 0.000000 0.000000 -1.282014 -44.628398 4.213879 -42.709620 -10.640819 -33.700488 73.525470 16.353621 -14.423550 -21.369835 -25.599387 39.917080 6.001324 15.497810 -33.027824 0.000000 0.000000 0.000000 -2.652753 -42.034504 2.277096 16.496153 7.507498 0.054561 0.151657 0.470894 -2.272133 0.074227 -0.051317 -0.068372 0.000000 0.000000 0.000000 2.667966 2.179946 -0.114344 9.159167 15.268193 1.242459 -23.193364 27.380449 -12.014275 0.000000 0.000000 0.000000 1.735809 0.752973 -1.270846 0.832617 3.253224 -7.134652 3.771288 -9.901383 5.705682 -61.590138 13.172518 -37.710772 170.454460 -80.768305 164.574433 0.000000 0.000000 0.000000 0.930071 -0.019387 -0.638369 -1.885946 13.557579 -6.391764 -3.665914 -0.957345 1.418490 -39.947341 29.142443 78.286836 -133.216187 72.929809 134.770684 0.000000 0.000000 0.000000 
